<svg version="1.1" viewBox="0.0 0.0 960.0 720.0" fill="none" stroke="none" stroke-linecap="square" stroke-miterlimit="10" xmlns:xlink="http://www.w3.org/1999/xlink" xmlns="http://www.w3.org/2000/svg"><clipPath id="p.0"><path d="m0 0l960.0 0l0 720.0l-960.0 0l0 -720.0z" clip-rule="nonzero"/></clipPath><g clip-path="url(#p.0)"><path fill="#000000" fill-opacity="0.0" d="m0 0l960.0 0l0 720.0l-960.0 0z" fill-rule="evenodd"/><path fill="#4a86e8" d="m48.0 264.0l40.0 -79.99997l136.0 0l40.0 79.99997l-40.0 79.99997l-136.0 0z" fill-rule="evenodd"/><path fill="#ffffff" d="m99.81771 319.47998l0 -110.70311l22.046875 0l26.203117 78.374985q3.625 10.953125 5.28125 16.390625q1.890625 -6.03125 5.890625 -17.75l26.515625 -77.01561l19.703125 0l0 110.70311l-14.125 0l0 -92.656235l-32.171875 92.656235l-13.203125 0l-32.031242 -94.249985l0 94.249985l-14.109375 0z" fill-rule="nonzero"/><path fill="#4a86e8" d="m207.81537 277.3336l0 0c0 -7.363922 5.9696655 -13.333588 13.333603 -13.333588l325.71075 0c3.536255 0 6.9277344 1.4047852 9.428284 3.9053345c2.5004883 2.5005188 3.9052734 5.891968 3.9052734 9.428253l0 53.332825c0 7.363922 -5.9696045 13.333588 -13.333557 13.333588l-325.71075 0c-7.3639374 0 -13.333603 -5.9696655 -13.333603 -13.333588z" fill-rule="evenodd"/><path fill="#ffffff" d="m215.53316 285.29l0 -5.78125l5.03125 0l0 5.78125l-5.03125 0zm0 35.25l0 -29.734375l5.03125 0l0 29.734375l-5.03125 0zm32.095856 -10.890625l4.953125 0.640625q-0.796875 5.125 -4.15625 8.03125q-3.34375 2.890625 -8.203125 2.890625q-6.109375 0 -9.828125 -3.984375q-3.703125 -4.0 -3.703125 -11.4375q0 -4.8125 1.59375 -8.421875q1.609375 -3.609375 4.859375 -5.421875q3.265625 -1.8125 7.09375 -1.8125q4.84375 0 7.921875 2.453125q3.078125 2.453125 3.953125 6.953125l-4.90625 0.765625q-0.6875 -3.0 -2.46875 -4.5q-1.78125 -1.515625 -4.296875 -1.515625q-3.8125 0 -6.1875 2.734375q-2.375 2.71875 -2.375 8.625q0 5.984375 2.296875 8.703125q2.296875 2.71875 5.984375 2.71875q2.96875 0 4.953125 -1.8125q1.984375 -1.828125 2.515625 -5.609375zm9.210922 10.890625l0 -29.734375l4.53125 0l0 4.515625q1.75 -3.171875 3.21875 -4.171875q1.46875 -1.015625 3.234375 -1.015625q2.546875 0 5.171875 1.625l-1.734375 4.6875q-1.84375 -1.09375 -3.703125 -1.09375q-1.640625 0 -2.96875 1.0q-1.3125 0.984375 -1.875 2.75q-0.828125 2.6875 -0.828125 5.875l0 15.5625l-5.046875 0zm17.278229 -14.859375q0 -8.265625 4.59375 -12.234375q3.828125 -3.3125 9.34375 -3.3125q6.125 0 10.015625 4.03125q3.890625 4.015625 3.890625 11.09375q0 5.734375 -1.71875 9.03125q-1.71875 3.28125 -5.015625 5.109375q-3.28125 1.8125 -7.171875 1.8125q-6.25 0 -10.09375 -4.0q-3.84375 -4.0 -3.84375 -11.53125zm5.171875 0q0 5.703125 2.484375 8.546875q2.5 2.84375 6.28125 2.84375q3.75 0 6.234375 -2.859375q2.5 -2.859375 2.5 -8.703125q0 -5.515625 -2.515625 -8.359375q-2.5 -2.84375 -6.21875 -2.84375q-3.78125 0 -6.28125 2.828125q-2.484375 2.828125 -2.484375 8.546875zm28.586304 14.859375l0 -29.734375l4.5 0l0 4.171875q1.40625 -2.171875 3.71875 -3.5q2.328125 -1.34375 5.296875 -1.34375q3.3125 0 5.421875 1.375q2.109375 1.375 2.984375 3.84375q3.515625 -5.21875 9.171875 -5.21875q4.421875 0 6.796875 2.453125q2.390625 2.453125 2.390625 7.546875l0 20.40625l-5.015625 0l0 -18.734375q0 -3.015625 -0.5 -4.34375q-0.484375 -1.328125 -1.765625 -2.140625q-1.28125 -0.8125 -3.015625 -0.8125q-3.140625 0 -5.21875 2.09375q-2.0625 2.078125 -2.0625 6.671875l0 17.265625l-5.046875 0l0 -19.3125q0 -3.359375 -1.234375 -5.03125q-1.21875 -1.6875 -4.03125 -1.6875q-2.125 0 -3.9375 1.125q-1.796875 1.109375 -2.609375 3.265625q-0.8125 2.15625 -0.8125 6.21875l0 15.421875l-5.03125 0zm68.09851 -9.578125l5.203125 0.65625q-1.21875 4.5625 -4.5625 7.078125q-3.328125 2.515625 -8.5 2.515625q-6.53125 0 -10.359375 -4.015625q-3.8125 -4.015625 -3.8125 -11.265625q0 -7.5 3.859375 -11.640625q3.875 -4.15625 10.03125 -4.15625q5.96875 0 9.734375 4.0625q3.78125 4.0625 3.78125 11.421875q0 0.453125 -0.03125 1.34375l-22.15625 0q0.265625 4.90625 2.75 7.515625q2.5 2.59375 6.234375 2.59375q2.765625 0 4.71875 -1.453125q1.96875 -1.453125 3.109375 -4.65625zm-16.546875 -8.140625l16.609375 0q-0.34375 -3.75 -1.90625 -5.625q-2.40625 -2.90625 -6.234375 -2.90625q-3.484375 0 -5.84375 2.328125q-2.359375 2.3125 -2.625 6.203125zm39.086304 13.21875l0.71875 4.4375q-2.125 0.453125 -3.796875 0.453125q-2.75 0 -4.265625 -0.859375q-1.5 -0.875 -2.125 -2.28125q-0.609375 -1.421875 -0.609375 -5.953125l0 -17.109375l-3.703125 0l0 -3.921875l3.703125 0l0 -7.359375l5.015625 -3.015625l0 10.375l5.0625 0l0 3.921875l-5.0625 0l0 17.390625q0 2.15625 0.265625 2.78125q0.265625 0.609375 0.859375 0.96875q0.609375 0.359375 1.71875 0.359375q0.84375 0 2.21875 -0.1875zm4.8651123 4.5l0 -29.734375l4.53125 0l0 4.515625q1.75 -3.171875 3.21875 -4.171875q1.46875 -1.015625 3.234375 -1.015625q2.546875 0 5.171875 1.625l-1.734375 4.6875q-1.84375 -1.09375 -3.703125 -1.09375q-1.640625 0 -2.96875 1.0q-1.3125 0.984375 -1.875 2.75q-0.828125 2.6875 -0.828125 5.875l0 15.5625l-5.046875 0zm39.49695 -9.578125l5.203125 0.65625q-1.21875 4.5625 -4.5625 7.078125q-3.328125 2.515625 -8.5 2.515625q-6.53125 0 -10.359375 -4.015625q-3.8125 -4.015625 -3.8125 -11.265625q0 -7.5 3.859375 -11.640625q3.875 -4.15625 10.03125 -4.15625q5.96875 0 9.734375 4.0625q3.78125 4.0625 3.78125 11.421875q0 0.453125 -0.03125 1.34375l-22.15625 0q0.265625 4.90625 2.75 7.515625q2.5 2.59375 6.234375 2.59375q2.765625 0 4.71875 -1.453125q1.96875 -1.453125 3.109375 -4.65625zm-16.546875 -8.140625l16.609375 0q-0.34375 -3.75 -1.90625 -5.625q-2.40625 -2.90625 -6.234375 -2.90625q-3.484375 0 -5.84375 2.328125q-2.359375 2.3125 -2.625 6.203125zm55.648804 -23.3125l5.4375 0l0 23.703125q0 6.1875 -1.40625 9.828125q-1.390625 3.640625 -5.046875 5.921875q-3.65625 2.28125 -9.578125 2.28125q-5.78125 0 -9.453125 -1.984375q-3.65625 -2.0 -5.234375 -5.765625q-1.5625 -3.765625 -1.5625 -10.28125l0 -23.703125l5.4375 0l0 23.671875q0 5.34375 0.984375 7.890625q1.0 2.53125 3.421875 3.90625q2.421875 1.359375 5.921875 1.359375q5.984375 0 8.53125 -2.703125q2.546875 -2.71875 2.546875 -10.453125l0 -23.671875zm14.259918 41.03125l0 -41.03125l5.421875 0l0 20.34375l20.37503 -20.34375l7.375 0l-17.21875 16.625l17.96875 24.40625l-7.171875 0l-14.6094055 -20.765625l-6.71875 6.546875l0 14.21875l-5.421875 0z" fill-rule="nonzero"/></g></svg>